<?xml version="1.0" encoding="utf-8"?>
<!-- Generator: Adobe Illustrator 27.5.0, SVG Export Plug-In . SVG Version: 6.00 Build 0)  -->
<svg version="1.1" xmlns="http://www.w3.org/2000/svg" xmlns:xlink="http://www.w3.org/1999/xlink" x="0px" y="0px"
	 viewBox="0 0 500 500" style="enable-background:new 0 0 500 500;" xml:space="preserve">
<g id="BACKGROUND">
	<radialGradient id="SVGID_1_" cx="250" cy="250" r="303.4585" gradientUnits="userSpaceOnUse">
		<stop  offset="0" style="stop-color:#FFFFFF"/>
		<stop  offset="0.3287" style="stop-color:#FCFCFD"/>
		<stop  offset="0.5871" style="stop-color:#F2F4F6"/>
		<stop  offset="0.8209" style="stop-color:#E1E7E9"/>
		<stop  offset="1" style="stop-color:#CFD8DC"/>
	</radialGradient>
	<rect style="fill:url(#SVGID_1_);" width="500" height="500"/>
</g>
<g id="OBJECTS">
	<g>
		<g>
			<path style="fill:#263238;" d="M350.965,203.152l-8.434,1.535l0.154,0.845c-18.524,7.408-29.907,27.049-26.196,47.438
				s21.284,34.76,41.231,35.166l0.154,0.845l8.434-1.535c23.277-4.237,38.713-26.541,34.476-49.818S374.242,198.915,350.965,203.152
				z"/>
			<circle style="fill:#263238;" cx="350.202" cy="246.834" r="42.84"/>
			<circle style="fill:#263238;" cx="350.202" cy="246.834" r="18.922"/>
			<g>
				<path style="fill:#263238;" d="M356.162,275.448c-16.278,2.963-31.876-7.832-34.839-24.11c-1.27-6.98-0.005-13.832,3.131-19.619
					c-5.743,6.626-8.545,15.698-6.852,24.996c2.963,16.278,18.561,27.073,34.839,24.11c9.298-1.692,16.801-7.511,20.979-15.22
					C369.109,270.58,363.142,274.178,356.162,275.448z"/>
			</g>
		</g>
		<g>
			<path style="fill:#263238;" d="M181.657,235.041l-8.434,1.535l0.154,0.846c-18.524,7.408-29.907,27.049-26.196,47.438
				c3.711,20.389,21.284,34.76,41.231,35.166l0.154,0.846l8.434-1.535c23.277-4.237,38.713-26.541,34.476-49.818
				C227.238,246.239,204.934,230.804,181.657,235.041z"/>
			<circle style="fill:#263238;" cx="180.894" cy="278.723" r="42.84"/>
			<circle style="fill:#263238;" cx="180.894" cy="278.723" r="18.922"/>
			<g>
				<path style="fill:#263238;" d="M186.854,307.337c-16.278,2.963-31.876-7.832-34.839-24.11c-1.27-6.98-0.005-13.832,3.131-19.619
					c-5.743,6.626-8.545,15.698-6.852,24.996c2.963,16.278,18.561,27.073,34.839,24.11c9.298-1.692,16.801-7.511,20.979-15.22
					C199.801,302.469,193.834,306.067,186.854,307.337z"/>
			</g>
		</g>
		
			<linearGradient id="SVGID_00000124873470626545796490000017855416525624121492_" gradientUnits="userSpaceOnUse" x1="237.107" y1="137.7246" x2="318.9297" y2="137.7246" gradientTransform="matrix(0.9993 0.0376 -0.0376 0.9993 14.5769 -8.0312)">
			<stop  offset="0" style="stop-color:#263238"/>
			<stop  offset="1" style="stop-color:#455A64"/>
		</linearGradient>
		<path style="fill:url(#SVGID_00000124873470626545796490000017855416525624121492_);" d="M302.743,154.852
			c7.91-0.63,16.894,0.123,24.818,1.252c-2.365-11.452-7.286-29.02-15.332-29.654c-11.967-0.943-36.651,10.001-40.005,7.133
			c-3.354-2.868-27.187-0.254-25.839,5.776c1.348,6.029,6.434,16.649,20.256,13.559c13.822-3.09,10.384-10.21,23.011-14.187
			C305.856,133.628,304.3,141.38,302.743,154.852z"/>
		<g>
			<path style="fill:#263238;" d="M285.446,137.61c-13.063,2.15-10.667,9.685-24.788,10.787c-5.54,0.432-9.444-1.038-12.179-3.351
				c2.751,5.179,8.176,10.104,18.163,7.871c13.822-3.09,10.384-10.21,23.011-14.187c1.975-0.622,3.682-1.05,5.161-1.303
				C292.753,136.871,289.739,136.904,285.446,137.61z"/>
			<path style="fill:#263238;" d="M309.533,128.648c6.825,1.531,9.526,15.321,10.594,26.569c2.534,0.245,5.035,0.545,7.434,0.887
				c-2.365-11.452-7.286-29.02-15.332-29.654c-3.716-0.293-8.659,0.561-13.808,1.792
				C302.639,127.959,306.55,127.979,309.533,128.648z"/>
		</g>
		
			<linearGradient id="SVGID_00000121244976213396567560000010769159807088392067_" gradientUnits="userSpaceOnUse" x1="49.9892" y1="216.7974" x2="384.7124" y2="216.7974" gradientTransform="matrix(0.997 0.0774 -0.0774 0.997 20.1803 -19.2093)">
			<stop  offset="0" style="stop-color:#8A4CFF"/>
			<stop  offset="1" style="stop-color:#008AFF"/>
		</linearGradient>
		<path style="fill:url(#SVGID_00000121244976213396567560000010769159807088392067_);" d="M331.215,196.623
			c-17.572,1.571-32.663,12.261-37.318,20.747c0,0,5.703-32.356,54.194-28.059c-22.015-14.064-56.639-8.558-69,9.026
			c0,0,5.503-17.282,23.716-24.332c0,0-8.409-2.627-19.543,3.279c0,0,24.891-30.364,69.453,8.881
			c4.935-4.391,6.724-10.389,6.652-16.581c-0.116-9.983-24.886-14.102-53.311-10.657c-26.201,3.175-47.36,23.546-50.714,49.725
			c-0.646,5.044-0.558,9.492,0.191,12.745c0,0-6.253-13.461-0.713-39.007c0,0-7.152,17.768-26.258,35.034
			c-4.046,3.656-8.115,6.858-12.639,9.433c14.228,17.946,14.095,35.599,14.095,35.599c-3.979-16.299-18.873-28.841-31.819-31.838
			l0,0c-16.543,4.422-28.53,3.093-38.845-2.709c-21.217,6.821-25.624,29.37-25.624,29.37c18.634-15.054,40.574-14.691,56.448-7.799
			c21.103,9.162,25.734,32.568,43.82,29.276c0.436-0.079,1.06-0.193,1.917-0.349c3.555-0.647,11.137-2.027,26.198-4.768
			l31.052-5.652c0,0-11.542-44.585,33.942-52.863c40.838-7.433,58.754,25.833,58.754,25.833
			C377.398,194.464,331.215,196.623,331.215,196.623z"/>
		
			<linearGradient id="SVGID_00000067933046521930692170000001010803935420558723_" gradientUnits="userSpaceOnUse" x1="208.3433" y1="242.7464" x2="319.0996" y2="242.7464" gradientTransform="matrix(0.997 0.0774 -0.0774 0.997 20.1803 -19.2093)">
			<stop  offset="0" style="stop-color:#455A64"/>
			<stop  offset="1" style="stop-color:#263238"/>
		</linearGradient>
		<path style="fill:url(#SVGID_00000067933046521930692170000001010803935420558723_);" d="M308.361,232.172
			c-10.067-3.405-21.926,19.362-29.376,28.119c-5.532,6.502-44.404,12.387-44.404,12.387s23.428-7.329,36.179-13.025
			c7.403-3.307,20.174-39.803,51.234-43.74l-13.386,13.081L308.361,232.172z"/>
		<g>
			<path style="fill:#FFFFFF;" d="M164.004,244.648l-8.434,1.535l0.154,0.845c-18.524,7.408-29.907,27.049-26.196,47.438
				c3.711,20.389,21.284,34.76,41.231,35.166l0.154,0.845l8.434-1.535c23.277-4.237,38.713-26.541,34.476-49.818
				S187.281,240.411,164.004,244.648z"/>
			
				<linearGradient id="SVGID_00000164512862020717626120000016705889610690170537_" gradientUnits="userSpaceOnUse" x1="193.7159" y1="257.8558" x2="133.6738" y2="317.8979">
				<stop  offset="0" style="stop-color:#455A64"/>
				<stop  offset="1" style="stop-color:#263238"/>
			</linearGradient>
			<circle style="fill:url(#SVGID_00000164512862020717626120000016705889610690170537_);" cx="163.241" cy="288.33" r="42.84"/>
			<circle style="fill:#263238;" cx="163.241" cy="288.33" r="18.922"/>
			<g>
				<path style="fill:#FFFFFF;" d="M160.095,259.272c16.489-1.364,30.963,10.897,32.327,27.387
					c0.585,7.071-1.341,13.766-5.026,19.221c6.361-6.036,10.032-14.792,9.253-24.211c-1.364-16.489-15.837-28.751-32.327-27.387
					c-9.419,0.779-17.453,5.84-22.361,13.106C146.736,262.857,153.025,259.857,160.095,259.272z"/>
			</g>
		</g>
		<g>
			<path style="fill:#FFFFFF;" d="M331.731,214.12l-8.434,1.535l0.154,0.846c-18.524,7.408-29.907,27.049-26.196,47.438
				c3.711,20.389,21.284,34.76,41.231,35.166l0.154,0.845l8.434-1.535c23.277-4.237,38.713-26.541,34.476-49.818
				S355.008,209.883,331.731,214.12z"/>
			
				<linearGradient id="SVGID_00000041988796907377638010000008985847182843636411_" gradientUnits="userSpaceOnUse" x1="361.2635" y1="227.5071" x2="301.8132" y2="286.9573">
				<stop  offset="0" style="stop-color:#455A64"/>
				<stop  offset="1" style="stop-color:#263238"/>
			</linearGradient>
			<circle style="fill:url(#SVGID_00000041988796907377638010000008985847182843636411_);" cx="330.968" cy="257.802" r="42.84"/>
			<circle style="fill:#263238;" cx="330.968" cy="257.802" r="18.922"/>
			<g>
				<path style="fill:#FFFFFF;" d="M324.696,229.255c16.245-3.14,31.96,7.483,35.1,23.728c1.347,6.966,0.157,13.831-2.916,19.652
					c5.67-6.689,8.373-15.791,6.579-25.07c-3.14-16.245-18.855-26.868-35.1-23.728c-9.279,1.794-16.718,7.694-20.812,15.448
					C311.803,234.265,317.73,230.602,324.696,229.255z"/>
			</g>
		</g>
		
			<linearGradient id="SVGID_00000075854963616133374900000002643874328327562383_" gradientUnits="userSpaceOnUse" x1="157.5569" y1="339.9705" x2="412.3694" y2="313.8143">
			<stop  offset="0" style="stop-color:#8A4CFF"/>
			<stop  offset="1" style="stop-color:#008AFF"/>
		</linearGradient>
		<polygon style="fill:url(#SVGID_00000075854963616133374900000002643874328327562383_);" points="307.271,323.882 382.249,299.95 
			206.083,331.172 408.459,331.172 391.806,311.334 		"/>
		<g>
			
				<linearGradient id="SVGID_00000076606066531870384910000011417817740404280751_" gradientUnits="userSpaceOnUse" x1="100.7634" y1="253.802" x2="248.4432" y2="188.9427" gradientTransform="matrix(0.997 0.0774 -0.0774 0.997 20.1803 -19.2093)">
				<stop  offset="0" style="stop-color:#8A4CFF"/>
				<stop  offset="1" style="stop-color:#008AFF"/>
			</linearGradient>
			<path style="fill:url(#SVGID_00000076606066531870384910000011417817740404280751_);" d="M148.187,207.005
				c-8.695,3.135-10.719,4.229-20.438,15.559c-14.464,16.861-31.601,9.873-31.601,9.873c6.445,10.179,28.615,18.08,47.594,0.325
				c13.423-12.557,18.839-13.374,25.649-11.598c13.572,3.539,23.762,4.434,31.945,3.505
				C166.483,202.039,152.25,206.109,148.187,207.005z"/>
		</g>
		<g>
			
				<linearGradient id="SVGID_00000150811612135787760830000009710212156611127720_" gradientUnits="userSpaceOnUse" x1="97.3864" y1="228.1764" x2="243.3635" y2="164.0648">
				<stop  offset="0" style="stop-color:#263238"/>
				<stop  offset="1" style="stop-color:#455A64"/>
			</linearGradient>
			<path style="fill:url(#SVGID_00000150811612135787760830000009710212156611127720_);" d="M216.498,204.718
				c-13.664,2.134-22.542-1.442-30.958-5.766c-0.001-0.001-0.003-0.001-0.004-0.002c-0.001,0-0.002-0.001-0.003-0.001
				c-1.051-0.54-2.094-1.085-3.136-1.626c-4.772-2.566-8.931-5.241-12.791-7.632c0,0,0,0,0,0
				c-19.182-13.26-31.559-18.403-47.446-8.106c-14.27,9.249-29,4.132-29,4.132c8.335,8.543,18.075,12.629,33.687,5.601
				c-11.076,16.345-24.664,11.237-39.201,11.136c-16.205-0.112-22.364,19.789-22.364,19.789s9.312-11.323,23.824-6.091
				s21.716,7.419,43.134-5.259c7.474-4.424,15.946-3.886,15.946-3.886c4.063-0.896,18.296-4.966,53.148,17.664
				c12.791-1.452,20.669-7.375,28.801-14.723c16.946-15.314,23.29-31.074,23.29-31.074C245.324,189.195,231,202.452,216.498,204.718
				z"/>
		</g>
	</g>
</g>
<g id="TEXTS">
	<g>
		
			<text transform="matrix(1 0 0 1 132.1328 373.8232)" style="fill:#35464E; font-family:'FugazOne-Regular'; font-size:45.5503px;">quad ride</text>
	</g>
</g>
</svg>
